<?xml version="1.0" encoding="UTF-8" standalone="no"?><svg width="40" height="1130" viewBox="0 0 40 1130" xmlns="http://www.w3.org/2000/svg" xmlns:xlink="http://www.w3.org/1999/xlink"><svg width="27" height="25" viewBox="0 0 27 25" id="cart-button-white" xmlns="http://www.w3.org/2000/svg"><title>Cart_white</title><path d="M9.301 4.22l16.08 1.334 1.145.096-.168 1.137-1.35 9.18-.135.923H8.588l-.25-.73L3.924 2.94H.36V.78H5.362l.25.73.841 2.463 2.848.246v.002zM8.114 6.278l15.922 1.319-1.032 7.134H10.13L7.217 6.207l.897.07zm3.81 15.402a2.317 2.317 0 1 1-4.633.001 2.317 2.317 0 0 1 4.634 0zm14.221 0a2.318 2.318 0 1 1-4.635 0 2.318 2.318 0 0 1 4.635 0z" fill="#FFF" fill-rule="evenodd"/></svg><svg width="28" height="19" viewBox="0 0 28 19" id="cash-on-delivery" y="25" xmlns="http://www.w3.org/2000/svg"><title>cash</title><path d="M26.506 15.857V1.521H2.896V0h25.117v15.857h-1.507zm-1.406 3.15H-.017V3.041H25.1v15.966zM23.593 4.562H1.39v12.816h22.203V4.562zm-11.855 6.95c-1.206-.217-1.808-.542-2.108-.65-.602-.434-.906-.98-.906-1.52 0-1.197 1.206-2.063 3.014-2.28h.1V5.866h1.206v1.196h.1c1.307.217 2.413.758 2.814 1.629l-1.206.433c-.2-.216-.805-.541-1.507-.65h-.1v2.171h.1c.805.108 1.507.325 2.008.65.2.109.4.217.501.325l.1.109c.301.325.401.758.401 1.087 0 1.196-1.206 2.063-2.913 2.28h-.1v1.195h-1.207v-1.196h-.1c-1.507-.108-2.613-.87-2.914-1.737l1.207-.325c.2.325.805.65 1.707.758h.1l-.297-2.279zm.1-3.15h-.1c-1.106.109-1.808.65-1.808.98 0 .324.702.758 1.808.978h.1V8.362zm1.407 5.213c1.006-.109 1.707-.65 1.707-.98 0-.324-.701-.758-1.707-.978h-.1v1.954h.1v.004z" fill="#9CA73B" fill-rule="evenodd"/></svg><svg width="28" height="19" viewBox="0 0 28 19" id="cash-on-delivery-gray" y="44" xmlns="http://www.w3.org/2000/svg"><title>cash grey</title><path d="M26.506 15.857V1.521H2.896V0h25.117v15.857h-1.507zm-1.406 3.15H-.017V3.041H25.1v15.966zM23.593 4.562H1.39v12.816h22.203V4.562zm-11.855 6.95c-1.206-.217-1.808-.542-2.108-.65-.602-.434-.906-.98-.906-1.52 0-1.197 1.206-2.063 3.014-2.28h.1V5.866h1.206v1.196h.1c1.307.217 2.413.758 2.814 1.629l-1.206.433c-.2-.216-.805-.541-1.507-.65h-.1v2.171h.1c.805.108 1.507.325 2.008.65.2.109.4.217.501.325l.1.109c.301.325.401.758.401 1.087 0 1.196-1.206 2.063-2.913 2.28h-.1v1.195h-1.207v-1.196h-.1c-1.507-.108-2.613-.87-2.914-1.737l1.207-.325c.2.325.805.65 1.707.758h.1l-.297-2.279zm.1-3.15h-.1c-1.106.109-1.808.65-1.808.98 0 .324.702.758 1.808.978h.1V8.362zm1.407 5.213c1.006-.109 1.707-.65 1.707-.98 0-.324-.701-.758-1.707-.978h-.1v1.954h.1v.004z" fill="#9C999D" fill-rule="evenodd"/></svg><svg width="28" height="18" viewBox="0 0 28 18" id="economy-shipping" y="63" xmlns="http://www.w3.org/2000/svg"><title>Slice 1</title><g transform="translate(0 .116)" fill="#9CA83B" fill-rule="evenodd"><path d="M15.184.408H1.054c-.448 0-.773.28-.773.665v13.144c0 .383.34.684.773.684h1.034a.452.452 0 0 0 0-.904h-.904V1.311h13.873v12.686h-4.6a.452.452 0 1 0 0 .904h4.727c.435 0 .776-.3.776-.684V1.073c0-.385-.327-.665-.776-.665"/><path d="M15.184 15.171h-4.726a.723.723 0 0 1 0-1.445h4.328V1.582H1.455v12.144h.633a.723.723 0 0 1 0 1.445H1.054c-.585 0-1.044-.419-1.044-.954V1.073C.01.54.459.137 1.054.137h14.13c.596 0 1.047.402 1.047.936v13.144c0 .535-.46.954-1.047.954zm-4.726-.903a.18.18 0 0 0 0 .362h4.726c.283 0 .505-.182.505-.413V1.073c0-.232-.208-.394-.505-.394H1.054c-.296 0-.502.162-.502.394v13.144c0 .231.22.413.502.413h1.034a.18.18 0 0 0 0-.362H.913V1.04h14.415v13.228h-4.87zM27.391 8.684c-.125-.219-.246-.44-.367-.661a66.319 66.319 0 0 0-.246-.446c-.27-.483-.536-.968-.802-1.452l-.571-1.039-.315-.571c-.397-.721-1.354-1.286-2.178-1.286h-5.427a.452.452 0 0 0-.452.451V14.45c0 .25.202.452.452.452h.921a.452.452 0 1 0 0-.904h-.47V4.132h4.976c.498 0 1.146.382 1.387.82l.316.572.57 1.035c.266.487.533.974.805 1.458l.242.44c.124.226.247.451.375.675.221.387.22.879.218 1.399v2.726c0 .171-.294.605-.557.878a.452.452 0 0 0 .65.628c.136-.14.81-.872.81-1.506v-2.724c.002-.587.004-1.252-.337-1.849"/><path d="M26.593 15.171a.724.724 0 0 1-.52-1.224c.251-.26.465-.606.481-.702v-2.714c.001-.484.003-.94-.183-1.265-.125-.22-.247-.442-.369-.665l-.06-.109a187.918 187.918 0 0 1-.995-1.802l-.047-.086c-.174-.316-.347-.633-.522-.949l-.317-.573c-.192-.35-.75-.68-1.15-.68h-4.704v9.324h.2a.723.723 0 0 1 0 1.445h-.922a.723.723 0 0 1-.723-.722V3.68c0-.398.324-.722.723-.722h5.427c.93 0 1.968.613 2.415 1.426l.315.571c.192.346.382.693.572 1.04.265.483.53.967.8 1.45l.248.448c.12.22.24.44.365.657.376.66.374 1.363.372 1.984v2.723c0 .721-.678 1.479-.885 1.694a.717.717 0 0 1-.52.22zm-8.928-11.31h5.247c.594 0 1.338.44 1.624.96l.316.572c.175.316.35.633.523.95l.047.086a181.146 181.146 0 0 0 .995 1.802l.052.095c.129.235.25.454.373.672.257.45.255 1.001.254 1.534v2.725c0 .335-.456.883-.632 1.066a.181.181 0 0 0 .004.256c.07.067.189.065.256-.005.272-.282.733-.877.733-1.317v-2.724c.002-.58.004-1.18-.301-1.715-.126-.22-.248-.442-.37-.665-.08-.148-.162-.296-.245-.445-.27-.483-.536-.968-.802-1.453-.19-.346-.38-.692-.572-1.038l-.315-.571c-.347-.632-1.218-1.146-1.94-1.146h-5.427a.18.18 0 0 0-.18.18V14.45c0 .1.08.18.18.18h.921a.18.18 0 0 0 0-.36h-.74V3.86zM6.295 16.545A2.098 2.098 0 0 1 4.2 14.449c0-1.156.94-2.096 2.096-2.096 1.156 0 2.096.94 2.096 2.096 0 1.156-.94 2.096-2.096 2.096m0-5.095c-1.653 0-2.999 1.345-2.999 3 0 1.653 1.346 2.998 3 2.998 1.653 0 2.999-1.345 2.999-2.999 0-1.654-1.346-2.999-3-2.999"/><path d="M6.295 17.72a3.274 3.274 0 0 1-3.27-3.271 3.274 3.274 0 0 1 3.27-3.27 3.274 3.274 0 0 1 3.27 3.27 3.274 3.274 0 0 1-3.27 3.27zm0-5.999a2.731 2.731 0 0 0-2.728 2.728 2.731 2.731 0 0 0 2.728 2.728 2.731 2.731 0 0 0 2.729-2.728 2.731 2.731 0 0 0-2.729-2.728zm0 5.095a2.37 2.37 0 0 1-2.367-2.367 2.37 2.37 0 0 1 2.367-2.367 2.37 2.37 0 0 1 2.367 2.367 2.37 2.37 0 0 1-2.367 2.367zm0-4.192A1.827 1.827 0 0 0 4.47 14.45c0 1.006.819 1.825 1.825 1.825a1.827 1.827 0 0 0 1.825-1.825 1.827 1.827 0 0 0-1.825-1.825zM22.55 16.545a2.098 2.098 0 0 1-2.097-2.096c0-1.156.94-2.096 2.096-2.096 1.156 0 2.096.94 2.096 2.096 0 1.156-.94 2.096-2.096 2.096m0-5.095c-1.654 0-2.999 1.345-2.999 3 0 1.653 1.345 2.998 3 2.998 1.653 0 2.998-1.345 2.998-2.999 0-1.654-1.345-2.999-2.999-2.999"/><path d="M22.55 17.72a3.274 3.274 0 0 1-3.27-3.271 3.274 3.274 0 0 1 3.27-3.27 3.274 3.274 0 0 1 3.27 3.27 3.274 3.274 0 0 1-3.27 3.27zm0-5.999a2.731 2.731 0 0 0-2.729 2.728 2.731 2.731 0 0 0 2.728 2.728 2.732 2.732 0 0 0 2.728-2.728 2.731 2.731 0 0 0-2.728-2.728zm0 5.095a2.37 2.37 0 0 1-2.368-2.367 2.37 2.37 0 0 1 2.367-2.367 2.37 2.37 0 0 1 2.367 2.367 2.37 2.37 0 0 1-2.367 2.367zm0-4.192a1.827 1.827 0 0 0-1.826 1.825c0 1.006.819 1.825 1.825 1.825a1.827 1.827 0 0 0 1.825-1.825 1.827 1.827 0 0 0-1.825-1.825zM19.596 7.836V5.74h2.796c.242 0 .567.192.684.404l.174.316c.106.19.21.379.314.57.148.268.295.538.446.806h-4.414zm5.29.516a.343.343 0 0 0 .004-.34l-.15-.27-.132-.24c-.15-.267-.297-.535-.443-.802l-.315-.572-.174-.315c-.238-.432-.79-.759-1.284-.759h-3.138a.343.343 0 0 0-.343.343V8.18c0 .19.154.343.343.343h5.337a.343.343 0 0 0 .295-.17z"/><path d="M24.59 8.793h-5.336a.614.614 0 0 1-.614-.614V5.397c0-.338.276-.614.614-.614h3.138c.595 0 1.235.378 1.521.9l.174.314c.106.19.21.381.315.572l.028.051c.137.25.274.5.414.75l.133.24.15.27a.617.617 0 0 1-.007.61.617.617 0 0 1-.53.303zm-5.336-3.468a.072.072 0 0 0-.072.072V8.18c0 .04.032.072.072.072h5.337c.025 0 .049-.014.062-.036a.074.074 0 0 0 0-.071l-.15-.272-.133-.24c-.139-.248-.277-.5-.415-.75l-.028-.052-.314-.57-.174-.316c-.191-.347-.65-.619-1.047-.619h-3.138zm4.756 2.782h-4.684V5.47h3.066c.343 0 .756.244.922.544l.174.316.259.47.076.139c.14.255.28.511.423.766l.226.403h-.462zm-4.142-.542h3.681l-.201-.367-.077-.139a78.6 78.6 0 0 0-.258-.468l-.174-.317c-.07-.125-.303-.263-.447-.263h-2.524v1.554zM8.4 9.155c-.462 0-.828-.13-1.085-.386a1.322 1.322 0 0 1-.389-.975v-.326c0-.387.13-.714.386-.971.257-.258.62-.389 1.08-.389.467 0 .831.13 1.083.387.252.256.38.584.38.973v.326c0 .393-.128.721-.38.976-.252.256-.613.385-1.074.385zm-.008-2.096c-.119 0-.207.037-.268.113a.451.451 0 0 0-.098.296v.326c0 .114.036.209.111.291.074.08.16.119.264.119.143 0 .238-.032.282-.094a.546.546 0 0 0 .076-.316v-.326a.445.445 0 0 0-.1-.295c-.062-.077-.15-.114-.267-.114zM4.326 8.22l3.106-4.972.827.416-3.106 4.972-.827-.416zm-.124-2.537c-.463 0-.827-.13-1.082-.386a1.325 1.325 0 0 1-.384-.97v-.326c0-.39.128-.718.382-.976.253-.258.615-.389 1.076-.389.466 0 .831.131 1.085.39.253.257.381.585.381.975v.326c0 .39-.128.717-.382.972-.253.255-.615.384-1.076.384zm-.008-2.096c-.116 0-.203.037-.264.113a.459.459 0 0 0-.099.3v.327c0 .12.032.217.098.296.061.073.15.109.273.109.117 0 .203-.036.263-.109a.447.447 0 0 0 .096-.296v-.326a.458.458 0 0 0-.099-.301c-.061-.076-.149-.113-.268-.113z"/><path d="M4.194 2.726c.443 0 .783.121 1.02.362.237.242.356.546.356.913v.326c0 .367-.119.67-.356.908-.237.239-.574.358-1.012.358-.44 0-.78-.12-1.018-.36a1.232 1.232 0 0 1-.358-.906v-.326c0-.367.119-.671.356-.913.237-.24.574-.362 1.012-.362zm.008 2.096a.406.406 0 0 0 .333-.141.539.539 0 0 0 .116-.354v-.326a.55.55 0 0 0-.118-.358.41.41 0 0 0-.34-.146.406.406 0 0 0-.334.146.55.55 0 0 0-.118.358v.326c0 .141.04.259.118.354.08.094.194.141.343.141zm3.263-1.456l.665.334L5.12 8.52l-.665-.335 3.01-4.818zm.928 2.832c.443 0 .782.12 1.018.36.235.24.353.544.353.91v.326c0 .37-.118.674-.353.913-.236.238-.573.358-1.01.358-.44 0-.781-.12-1.023-.36a1.23 1.23 0 0 1-.362-.91v-.327c0-.364.12-.666.36-.908.24-.241.58-.362 1.017-.362zM8.4 8.294c.175 0 .293-.044.356-.131a.628.628 0 0 0 .093-.369v-.326a.537.537 0 0 0-.12-.353.413.413 0 0 0-.337-.146.41.41 0 0 0-.34.146.543.543 0 0 0-.118.353v.326c0 .136.045.253.136.352.09.099.2.148.33.148zM4.194 2.546c-.486 0-.87.14-1.14.416A1.43 1.43 0 0 0 2.645 4v.326c0 .412.138.76.41 1.033.273.275.658.413 1.146.413.486 0 .87-.138 1.14-.41.271-.273.409-.621.409-1.036v-.326c0-.414-.137-.764-.408-1.04-.271-.275-.658-.415-1.15-.415zm.008 2.096c-.125 0-.176-.044-.204-.077a.355.355 0 0 1-.076-.238v-.326c0-.1.025-.18.078-.244.03-.037.079-.08.194-.08.12 0 .17.046.198.08a.371.371 0 0 1 .079.244v.326a.361.361 0 0 1-.076.239c-.027.032-.076.076-.193.076zM7.4 3.13L4.197 8.256l.989.498 3.202-5.126-.177-.089L7.4 3.13zm.994 2.888c-.486 0-.87.14-1.145.415a1.415 1.415 0 0 0-.412 1.035v.326c0 .416.14.765.415 1.039.275.274.662.412 1.15.412.485 0 .868-.138 1.138-.411.27-.273.406-.622.406-1.04v-.326c0-.414-.137-.763-.405-1.036-.27-.275-.656-.414-1.147-.414zM8.4 8.113a.252.252 0 0 1-.197-.09.321.321 0 0 1-.088-.229v-.326c0-.096.025-.174.078-.24.028-.033.078-.078.199-.078.117 0 .168.045.197.08a.36.36 0 0 1 .08.238v.326a.47.47 0 0 1-.06.264c-.026.035-.101.055-.21.055z"/></g></svg><svg width="22" height="22" viewBox="0 0 22 22" id="effortless-cash" y="81" xmlns="http://www.w3.org/2000/svg"><title>effortless-1-cod</title><g transform="translate(1 1)" fill="none" fill-rule="evenodd"><circle stroke="#6F696F" stroke-width="1.5" cx="10" cy="10" r="9.731"/><path d="M13.462 10.577V9.154a.592.592 0 0 0-.577-.577H5.73a.592.592 0 0 0-.577.577V14.5c0 .308.27.577.577.577h7.115c.308 0 .577-.27.577-.577v-1.423H9.615c-.384 0-.653-.308-.653-.692v-1.193a.69.69 0 0 1 .692-.692l3.808.077" fill="#6F696F"/><path d="M10.346 11.23a.592.592 0 0 0-.577.578c0 .307.27.577.577.577.308 0 .577-.27.577-.577-.077-.27-.308-.577-.577-.577zm-.73 1.462a.263.263 0 0 1-.27-.269v-1.192c0-.154.116-.27.27-.27h4.23v1.731h-4.23zM12.23 8.27c.193-.155.232-.424.078-.578-.154-.192-.423-.23-.577-.077-.193.154-.231.423-.077.577.115.193.423.231.577.077zm-2.538.23c-.077.077-.115.115-.154.192h1.616c0-.038-.039-.038-.039-.077-.346-.346-.961-.384-1.423-.115zM11.115 6L9.5 7.308l1.077-1.577c.038-.039.115-.077.154-.039l.384.308zm3.77 2.077l-2.423-3c-.039-.077-.154-.077-.193-.039l-.692.577L10.654 5c-.077-.038-.154-.038-.192.038L8.154 8.346l-.423.385H8.5l3.654-3a.117.117 0 0 1 .154 0l1.884 2.307a.117.117 0 0 1 0 .154l-1.077.885c-.038-.039-.038-.077-.077-.115H13l-.077-.077.115-.077c.039-.039.039-.077.039-.116a.882.882 0 0 1 .385-.923l.038-.038c.038 0 .038-.039.038-.077 0-.039 0-.077-.038-.077l-.77-.962a.117.117 0 0 0-.153 0c-.692.539-1.039.231-1.077.193a.117.117 0 0 0-.154 0L8.885 8.73h.384L11.385 7c.192.115.615.27 1.192-.192l.615.769c-.307.27-.5.654-.423 1.077l-.077.077h.077l.423.577.077.269 1.577-1.308c.039 0 .077-.154.039-.192-.077 0-.077 0 0 0z" fill="#6F696F"/></g></svg><svg width="22" height="22" viewBox="0 0 22 22" id="effortless-customer" y="103" xmlns="http://www.w3.org/2000/svg"><title>effortless-5-customer</title><g transform="translate(1 1)" fill="none" fill-rule="evenodd"><circle stroke="#6F696F" stroke-width="1.5" cx="10" cy="10" r="9.725"/><path d="M10 3.53a5.356 5.356 0 0 0-5.373 5.372v4.314c0 .313.236.549.55.549h.548c.589 0 1.06-.47 1.099-1.06V10.51c0-.588-.471-1.059-1.06-1.059h-.156v-.549a4.461 4.461 0 0 1 4.314-4.588 4.437 4.437 0 0 1 4.588 4.313V9.451h-.118c-.588 0-1.059.47-1.059 1.059v2.157c0 .588.47 1.058 1.02 1.058a3.338 3.338 0 0 1-2.628 2.236v-.079a.52.52 0 0 0-.51-.51h-1.097a.536.536 0 0 0-.55.55c0 .313.236.549.55.549h1.098l.549-.04a3.707 3.707 0 0 0 3.059-2.666h.156a.536.536 0 0 0 .55-.55V8.903c-.157-2.98-2.55-5.373-5.53-5.373M15.922 10v3.216a2.706 2.706 0 0 0 0-3.216M4.078 13.216V10a2.706 2.706 0 0 0 0 3.216" fill="#6F696F"/></g></svg><svg width="22" height="22" viewBox="0 0 22 22" id="effortless-delivery" y="125" xmlns="http://www.w3.org/2000/svg"><title>effortless-2-delivery</title><g transform="translate(1 1)" fill="none" fill-rule="evenodd"><circle stroke="#6F696F" stroke-width="1.5" cx="10.154" cy="10.154" r="9.846"/><path d="M10.692 9.077l-.423 1.846c-.038.115-.154.192-.307.192l-2.885-.384c-.115 0-.192-.116-.154-.193V10.5l.423-1.885c.039-.115.154-.192.308-.192l.308.039-.5 1.115c-.154.346 0 .77.384.961.385.193.77 0 .962-.384l.654-1.5 1.076.154c.116 0 .193.115.154.192v.077m3.462 1.461l-1.308-1.076.346-1.385c.193-.692-.192-1.423-.884-1.615l-.231-.077c-.154-.039-.27-.039-.423-.039h-.116l-.153.039-2.5.615a.807.807 0 0 0-.5.5l-.154.346-1.077-.115c-.192 0-.385.115-.423.269l-.693 2.962c-.076.153 0 .307.154.346.039 0 .077.038.077.038l3.308.462-1.115 1.115-2.116.577c-.384.115-.615.5-.5.885.116.384.5.615.885.5L9 14.23l.077-.039c.115-.038.23-.077.308-.192l1.538-1.538 1.346 1.23-.423 1.923c-.077.385.154.77.539.847.384.076.769-.154.846-.539l.5-2.308a.792.792 0 0 0-.116-.577.53.53 0 0 0-.115-.153l-1.308-1.193c.039-.115.116-.192.116-.307l.115-.423.77.653c.345.193.769.116 1-.23.153-.231.115-.616-.04-.847M13.308 6.23c.692 0 1.23-.538 1.23-1.23S14 3.77 13.308 3.77c-.693 0-1.231.538-1.231 1.23s.538 1.23 1.23 1.23" fill="#6F696F"/></g></svg><svg width="22" height="22" viewBox="0 0 22 22" id="effortless-guarantee" y="147" xmlns="http://www.w3.org/2000/svg"><title>effortless-3-guarantee</title><g transform="translate(1 1)" fill="none" fill-rule="evenodd"><circle stroke="#6F696F" stroke-width="1.5" cx="10.115" cy="10.115" r="9.846"/><path d="M15.77 5.192c-2.155-.346-4.732-1.654-5.732-2.269-1.038.615-3.576 1.962-5.73 2.27-.077 9.422 5.154 11.845 5.73 12.153.577-.308 5.808-2.73 5.731-12.154" fill="#706A70"/><path d="M5.077 5.077c-.039 8 4.385 10.038 4.885 10.308.5-.231 4.923-2.308 4.846-10.27-1.846-.269-4-1.423-4.846-1.923-.885.5-3.039 1.654-4.885 1.885"/><path d="M13.346 10.115c0 1.808-1.461 3.308-3.308 3.27a3.266 3.266 0 0 1-3.269-3.27c0-1.807 1.462-3.269 3.308-3.269a3.242 3.242 0 0 1 3.27 3.27m.191 0c0-1.924-1.576-3.5-3.5-3.5a3.513 3.513 0 0 0-3.5 3.5c0 1.922 1.577 3.5 3.5 3.5 1.924 0 3.5-1.578 3.5-3.5" fill="#FFF"/><path d="M11.23 10.423c-.076-.038-.192-.077-.268-.115l-.616-1.385h-.192L9.077 11.27h.192l.27-.577.038-.077c.23-.153.5-.23.77-.23.268 0 .538.038.768.192l.116-.154zm-.46-.154c-.116-.038-.27-.038-.385-.038-.231 0-.462.038-.654.154v-.039l.538-1.192.5 1.115z" fill="#FFF"/><path d="M10.654 8.962l.077.153h1.23l-1.307 2.077.077.116h1.307l.077-.193h-1.192l1.27-2v-.153h-1.54zM7.885 8.962v2.346H9l.077-.154h-1V8.962h-.192z" fill="#FFF"/></g></svg><svg width="22" height="22" viewBox="0 0 22 22" id="effortless-trusted" y="169" xmlns="http://www.w3.org/2000/svg"><title>effortless-4-trusted</title><g transform="translate(1 1)" fill="none" fill-rule="evenodd"><circle stroke="#6F696F" stroke-width="1.5" cx="10.038" cy="10.038" r="9.731"/><path d="M3.423 10.462L5 8.923l3 2.962s3.423-4.539 8-7.385l.615.73s-5.23 5.116-7.73 10.308l-5.462-5.076z" fill="#6F696F"/></g></svg><svg width="35" height="18" viewBox="0 0 35 18" id="express" y="191" xmlns="http://www.w3.org/2000/svg"><title>express</title><path d="M32.793 15.57h-.898c-.3 1.407-1.5 2.41-3.001 2.41a3.024 3.024 0 0 1-3.001-2.41h-8.198c-.299 1.407-1.5 2.41-3 2.41a3.024 3.024 0 0 1-3.002-2.41h-1.102c-1.3 0-2.298-1.007-2.298-2.31v-1.207H5.595a.684.684 0 0 1-.698-.702c0-.4.299-.701.698-.701h5.3c.399 0 .698.3.698.701 0 .401-.3.702-.698.702H9.694v1.207c0 .501.399.902.897.902h1.102c.3-1.407 1.5-2.41 3.001-2.41 1.401 0 2.698 1.007 3.001 2.41h8.198c.299-1.407 1.5-2.41 3-2.41 1.501 0 2.698 1.007 3.002 2.41h.898c.499 0 .898-.401.898-.902v-3.216c-.2-.501-.5-.902-.699-1.307h-6.098c-1.9 0-2.598-1.608-2.598-2.71v-2.51c0-.401.3-.702.699-.702.399 0 .698.3.698.701v2.51c0 .301.1 1.308 1.201 1.308h5.3c-4.003-6.127-7.3-5.927-7.399-5.927h-16a.684.684 0 0 1-.698-.701c0-.405.3-.706.699-.706H24.79c1.201 0 5.6.601 10.097 9.443.1.1.1.3.1.4v3.317c.103 1.307-.894 2.41-2.195 2.41zm-16.498-1.504c-.3-.601-.799-1.007-1.501-1.007-.698 0-1.301.401-1.5 1.007-.1.2-.2.501-.2.702 0 .2.1.5.1.701.299.602.897 1.007 1.5 1.007.699 0 1.301-.401 1.5-1.007.1-.2.1-.4.1-.701.1-.2.1-.401 0-.702zm14.1 0c-.3-.601-.799-1.007-1.501-1.007-.703 0-1.301.401-1.5 1.007-.1.2-.2.501-.2.702 0 .2.1.5.1.701.299.602.897 1.007 1.5 1.007.599 0 1.301-.401 1.5-1.007.1-.2.1-.4.1-.701.2-.2.1-.401 0-.702zm-16.2-10.65c0 .401-.299.702-.698.702h-10.4a.684.684 0 0 1-.699-.702c0-.4.3-.701.699-.701h10.4c.4-.105.698.3.698.701zm-8.7 2.61c0-.4.3-.701.699-.701h9.997c.399 0 .698.3.698.701 0 .401-.3.702-.698.702H6.198a.682.682 0 0 1-.703-.702zm8.7 2.615c0 .4-.299.701-.698.701H.698A.684.684 0 0 1 0 8.641c0-.401.3-.702.698-.702h12.799a.679.679 0 0 1 .698.702z" fill="#9CA73B" fill-rule="evenodd"/></svg><svg width="35" height="18" viewBox="0 0 35 18" id="express-grey" y="209" xmlns="http://www.w3.org/2000/svg"><title>express grey</title><path d="M32.793 15.57h-.898c-.3 1.407-1.5 2.41-3.001 2.41a3.024 3.024 0 0 1-3.001-2.41h-8.198c-.299 1.407-1.5 2.41-3 2.41a3.024 3.024 0 0 1-3.002-2.41h-1.102c-1.3 0-2.298-1.007-2.298-2.31v-1.207H5.595a.684.684 0 0 1-.698-.702c0-.4.299-.701.698-.701h5.3c.399 0 .698.3.698.701 0 .401-.3.702-.698.702H9.694v1.207c0 .501.399.902.897.902h1.102c.3-1.407 1.5-2.41 3.001-2.41 1.401 0 2.698 1.007 3.001 2.41h8.198c.299-1.407 1.5-2.41 3-2.41 1.501 0 2.698 1.007 3.002 2.41h.898c.499 0 .898-.401.898-.902v-3.216c-.2-.501-.5-.902-.699-1.307h-6.098c-1.9 0-2.598-1.608-2.598-2.71v-2.51c0-.401.3-.702.699-.702.399 0 .698.3.698.701v2.51c0 .301.1 1.308 1.201 1.308h5.3c-4.003-6.127-7.3-5.927-7.399-5.927h-16a.684.684 0 0 1-.698-.701c0-.405.3-.706.699-.706H24.79c1.201 0 5.6.601 10.097 9.443.1.1.1.3.1.4v3.317c.103 1.307-.894 2.41-2.195 2.41zm-16.498-1.504c-.3-.601-.799-1.007-1.501-1.007-.698 0-1.301.401-1.5 1.007-.1.2-.2.501-.2.702 0 .2.1.5.1.701.299.602.897 1.007 1.5 1.007.699 0 1.301-.401 1.5-1.007.1-.2.1-.4.1-.701.1-.2.1-.401 0-.702zm14.1 0c-.3-.601-.799-1.007-1.501-1.007-.703 0-1.301.401-1.5 1.007-.1.2-.2.501-.2.702 0 .2.1.5.1.701.299.602.897 1.007 1.5 1.007.599 0 1.301-.401 1.5-1.007.1-.2.1-.4.1-.701.2-.2.1-.401 0-.702zm-16.2-10.65c0 .401-.299.702-.698.702h-10.4a.684.684 0 0 1-.699-.702c0-.4.3-.701.699-.701h10.4c.4-.105.698.3.698.701zm-8.7 2.61c0-.4.3-.701.699-.701h9.997c.399 0 .698.3.698.701 0 .401-.3.702-.698.702H6.198a.682.682 0 0 1-.703-.702zm8.7 2.615c0 .4-.299.701-.698.701H.698A.684.684 0 0 1 0 8.641c0-.401.3-.702.698-.702h12.799a.679.679 0 0 1 .698.702z" fill="#9C999D" fill-rule="evenodd"/></svg><svg width="12" height="12" viewBox="0 0 12 12" id="filter-checkbox-off" y="227"><path d="M0 0h12v12H0V0zm1 1v10h10V1H1" fill="#999" fill-rule="evenodd"/></svg><svg width="12" height="12" viewBox="0 0 12 12" id="filter-checkbox-on" y="239"><path d="M0 0h12v12H0V0zm1 1v10h10V1H1" fill="#999" fill-rule="evenodd"/><path d="M1.959 6.075l2.606 2.823 6-6.5" fill="none" stroke="#666" stroke-width="2"/></svg><svg id="flag-circle-en-small" viewBox="0 0 22 22" width="22" height="22" y="251" xmlns="http://www.w3.org/2000/svg"><style>.anst0{opacity:.6;fill:#111;fill-opacity:0;enable-background:new}.anst1{fill:none;stroke:gray;stroke-width:.5538}.anst2{fill:#d0011b}.anst3{clip-path:url(#anSVGID_2_)}.anst4{fill:#01247d}.anst5{fill:#fff}.anst6{fill:#cf142b}</style><title>flag_EN_S</title><g id="anSettings"><g id="anFlags-icons"><g id="anflag_EN"><path id="anboundingbox" class="anst0" d="M0 0h22v22H0z"/><path id="anShape" class="anst1" d="M11 2.8c-4.6 0-8.3 3.7-8.3 8.2 0 4.6 3.7 8.3 8.2 8.3 4.6 0 8.3-3.7 8.3-8.2 0-4.7-3.6-8.3-8.2-8.3z"/></g></g></g><circle id="an_Ellipse_2" class="anst2" cx="11" cy="11" r="7.2"/><defs><circle id="anSVGID_1_" cx="11" cy="11" r="7.2"/></defs><clipPath id="anSVGID_2_"><use xlink:href="#anSVGID_1_" overflow="visible"/></clipPath><g class="anst3"><path id="anRectangle-path" class="anst4" d="M.3 3.9h20.9v14.3H.3z"/><path id="anShape-2" class="anst5" d="M21.2 8.9h-8.3v-5H8.7v5H.4v4.3h8.3v5h4.2v-5h8.3V8.9z"/><path id="anShape-3" class="anst5" d="M21.2 16.5L2.7 3.9H.3v1.6l18.4 12.7h2.4v-1.7z"/><path id="anShape-4" class="anst5" d="M.3 16.5L18.8 3.9h2.4v1.6L2.7 18.2H.3v-1.7z"/><path id="anShape-5" class="anst6" d="M21.2 9.7H12V3.9H9.6v5.9H.3v2.5h9.2v5.9H12v-5.9h9.2V9.7z"/><path id="anShape-6" class="anst6" d="M21.2 18.2V17l-5.6-3.8H14l7.2 5z"/><path id="anShape-7" class="anst6" d="M21.2 3.9h-1.6L13 8.4v.4h1l7.2-4.9z"/><path id="anShape-8" class="anst6" d="M7.6 13.2l-7.2 5h1.5l6.7-4.6v-.4h-1z"/><path id="anShape-9" class="anst6" d="M.3 3.9V5l5.6 3.8h1.6L.3 3.9z"/><path id="anRectangle-path-2" class="anst4" d="M.5 3.9h20.9v14.3H.5z"/><path id="anShape-10" class="anst5" d="M21.4 8.9h-8.3v-5H8.9v5H.6v4.3h8.3v5h4.2v-5h8.3V8.9z"/><path id="anShape-11" class="anst5" d="M21.4 16.5L2.9 3.9H.5v1.6L19 18.2h2.5v-1.7z"/><path id="anShape-12" class="anst5" d="M.5 16.5L19 3.9h2.4v1.6L2.9 18.2H.5v-1.7z"/><path id="anShape-13" class="anst6" d="M21.4 9.7h-9.2V3.9H9.8v5.9H.5v2.5h9.2v5.9h2.5v-5.9h9.2V9.7z"/><path id="anShape-14" class="anst6" d="M21.4 18.2V17l-5.5-3.8h-1.6l7.1 5z"/><path id="anShape-15" class="anst6" d="M21.4 3.9h-1.7l-6.6 4.6v.4h1l7.3-5z"/><path id="anShape-16" class="anst6" d="M7.7 13.2l-7.2 5H2l6.7-4.6v-.4h-1z"/><path id="anShape-17" class="anst6" d="M.5 3.9V5l5.6 3.8h1.6L.5 3.9z"/></g></svg><svg id="flag-circle-id" data-name="Layer 1" viewBox="0 0 40 40" width="40" height="40" y="273" xmlns="http://www.w3.org/2000/svg"><defs><style>.aocls-1{fill:#fff}.aocls-2{fill:#111;fill-opacity:0;opacity:.6;isolation:isolate}.aocls-3{fill:none;stroke:gray}.cls-4{mask:url(#aomask)}.aocls-5{clip-path:url(#aoclip-path)}.aocls-6{fill:#ce1126}</style><mask id="aomask" x="7" y="7" width="26" height="26" maskUnits="userSpaceOnUse"><g transform="translate(4 4)"><g id="aomask-2"><circle id="aopath-1" class="aocls-1" cx="16" cy="16" r="13"/></g></g></mask><clipPath id="aoclip-path" transform="translate(4 4)"><circle id="ao_Ellipse_" data-name="&lt;Ellipse>" class="aocls-1" cx="16" cy="16" r="13"/></clipPath></defs><title>flag_IN</title><g id="aoSettings"><g id="aoFlags-icons"><g id="aoflag_IN" data-name="flag IN"><path id="aoboundingbox" class="aocls-2" d="M0 0h40v40H0z"/><path id="aoShape" class="aocls-3" d="M16 1a15 15 0 1 0 15 15A15 15 0 0 0 16 1z" transform="translate(4 4)"/></g></g></g><circle id="ao_Ellipse_2" data-name="&lt;Ellipse>" class="aocls-1" cx="20" cy="20" r="13"/><g class="aocls-5"><g id="aoLayer_1-2" data-name="Layer 1"><g id="aoGroup"><path class="aocls-6" d="M32 1.31H.09Q.06 3.17 0 5v11h32V1.31z" transform="translate(4 4)"/><path class="aocls-1" d="M4 19.99h32v14.68H4z"/></g></g></g></svg><svg id="flag-circle-id-inactive" data-name="Layer 1" viewBox="0 0 40 40" width="40" height="40" y="313" xmlns="http://www.w3.org/2000/svg"><defs><style>.apcls-1,.apcls-4{fill:none}.apcls-2{fill:#fff}.apcls-3{fill:#111;fill-opacity:0;opacity:.6;isolation:isolate}.apcls-4{stroke:gray}.apcls-5{clip-path:url(#apclip-path)}.apcls-6{fill:#4c4c4c}</style><clipPath id="apclip-path"><circle class="apcls-1" cx="20" cy="20" r="13"/></clipPath></defs><title>flag_IN_G</title><g id="apmask"><g id="apmask-2"><circle id="appath-1" class="apcls-2" cx="20" cy="20" r="13"/></g></g><g id="apSettings"><g id="apFlags-icons"><g id="apflag_IN" data-name="flag IN"><path id="apboundingbox" class="apcls-3" d="M0 0h40v40H0z"/><path id="apShape" class="apcls-4" d="M20 5a15 15 0 1 0 15 15A15 15 0 0 0 20 5z"/></g></g></g><circle id="ap_Ellipse_2" data-name="Ellipse 2" class="apcls-2" cx="20" cy="20" r="13"/><g class="apcls-5"><g id="apLayer_1-2" data-name="Layer 1-2"><g id="apGroup"><path class="apcls-6" d="M36 5.31H4.09Q4.06 7.17 4 9v11h32V5.31z"/><path class="apcls-2" d="M4 19.99h32v14.68H4z"/></g></g></g></svg><svg id="flag-circle-id-small" viewBox="0 0 22 22" width="22" height="22" y="353" xmlns="http://www.w3.org/2000/svg"><style>.aqst0{fill:#fff}.aqst1{opacity:.6;fill:#111;fill-opacity:0;enable-background:new}.aqst2{fill:none;stroke:gray;stroke-width:.5534}.aqst3{clip-path:url(#aqSVGID_2_)}.aqst4{fill:#ce1126}</style><title>flag_IN_S</title><g id="aqmask"><g id="aqmask-2"><circle id="aqpath-1" class="aqst0" cx="11" cy="11" r="7.1"/></g></g><g id="aqSettings"><g id="aqFlags-icons"><g id="aqflag_IN"><path id="aqboundingbox" class="aqst1" d="M0 0h22v22H0z"/><path id="aqShape" class="aqst2" d="M11 2.8c-4.6 0-8.2 3.7-8.2 8.2s3.7 8.2 8.2 8.2 8.2-3.7 8.2-8.2c0-4.6-3.6-8.2-8.2-8.2z"/></g></g></g><circle id="aq_Ellipse_2" class="aqst0" cx="11" cy="11" r="7.1"/><defs><circle id="aqSVGID_1_" cx="11" cy="11" r="7.1"/></defs><clipPath id="aqSVGID_2_"><use xlink:href="#aqSVGID_1_" overflow="visible"/></clipPath><g class="aqst3"><g id="aqLayer_1-2"><g id="aqGroup"><path class="aqst4" d="M19.8 2.9H2.3c0 .7 0 1.4-.1 2V11h17.6V2.9z"/><path class="aqst0" d="M2.2 11h17.6v8.1H2.2z"/></g></g></g></svg><svg id="flag-circle-ms-small" viewBox="0 0 22 22" width="22" height="22" y="375" xmlns="http://www.w3.org/2000/svg"><style>.arst0{opacity:.6;fill:#111;fill-opacity:0;enable-background:new}.arst1{fill:none;stroke:gray;stroke-width:.5538}.arst2{fill:#fff}.arst3{clip-path:url(#arSVGID_2_)}.arst4{fill:#dc241f}.arst5{fill:#010e66}.arst6{fill:#ffd100}</style><title>flag_MY_S</title><g id="arSettings"><g id="arFlags-icons"><g id="arflag_MY"><path id="arboundingbox" class="arst0" d="M0 0h22v22H0z"/><path id="arShape" class="arst1" d="M11 2.8c-4.6 0-8.3 3.7-8.3 8.2 0 4.6 3.7 8.3 8.2 8.3 4.6 0 8.3-3.7 8.3-8.2 0-4.6-3.6-8.3-8.2-8.3z"/></g></g></g><circle id="ar_Ellipse_2" class="arst2" cx="11" cy="11" r="7.1"/><defs><circle id="arSVGID_1_" cx="11" cy="11" r="7.1"/></defs><clipPath id="arSVGID_2_"><use xlink:href="#arSVGID_1_" overflow="visible"/></clipPath><g class="arst3"><g id="arLayer_1-2"><g id="arGroup"><path class="arst2" d="M19.9 14H3.8v1.1h16.1v-.4-.7z"/><path class="arst4" d="M19.9 12.9H3.8V14h16.1v-1.1zM19.8 17.3h-16v1.1h15.9c0-.3.1-.7.1-1.1z"/><path class="arst2" d="M19.8 11.7h-16v1.2h16.1c-.1-.4-.1-.8-.1-1.2z"/><path class="arst4" d="M19.8 15.1h-16v1.1h16.1c-.1-.3-.1-.7-.1-1.1z"/><path class="arst2" d="M19.8 16.2h-16v1.1h16V17v-.8zM19.6 7.3H3.8v1.1h15.9c-.1-.4-.1-.8-.1-1.1z"/><path class="arst4" d="M19.8 10.6h-16v1.1h16.1c-.1-.3-.1-.7-.1-1.1z"/><path class="arst2" d="M19.6 5H3.8v1.1h15.8V5z"/><path class="arst4" d="M19.6 6.1H3.8v1.1h15.8V6.1zM19.7 4.4v-.5H3.8V5h15.8c0-.2 0-.4.1-.6z"/><path class="arst2" d="M19.8 9.9v-.5h-16v1.2h16.1c-.1-.2-.1-.4-.1-.7z"/><path class="arst4" d="M19.7 8.4H3.8v1.1h16c-.1-.3-.1-.7-.1-1.1z"/><path class="arst5" d="M19.8 9.9c-.2-1.8-.3-3.7-.1-5.5v-.1-.5H3.8v9h16.1c-.1-.9-.1-1.9-.1-2.9z"/><path id="arShape-2" class="arst6" d="M10.5 10.8c-1.4 0-2.5-1.1-2.6-2.5 0-1.4 1.2-2.5 2.6-2.5.4 0 .8.1 1.2.2-.5-.4-1.1-.6-1.7-.6-1.7.1-3 1.4-3 2.9 0 1.6 1.3 2.8 2.9 2.8.6 0 1.2-.2 1.7-.6-.3.3-.7.4-1.1.3z"/><path id="arShape-3" class="arst6" d="M12.7 6l.3 1.5.8-1.3-.5 1.5 1.3-.8L13.5 8l1.6-.2-1.5.6 1.5.5-1.6-.2 1.1 1.1-1.3-.8.5 1.5-.8-1.2-.3 1.5-.2-1.5-.9 1.2.5-1.5-1.3.8 1.1-1.1-1.5.2 1.4-.5-1.4-.6 1.5.2-1.1-1.1 1.3.8-.5-1.5.9 1.3.2-1.5z"/></g></g></g></svg><svg id="flag-circle-th-small" viewBox="0 0 22 22" width="22" height="22" y="397" xmlns="http://www.w3.org/2000/svg"><style>.asst0{opacity:.6;fill:#111;fill-opacity:0;enable-background:new}.asst1{fill:none;stroke:gray;stroke-width:.558}.asst2{fill:#fff}.asst3{clip-path:url(#asSVGID_2_)}.asst4{fill:#de1018}.asst5{fill:#00247d}</style><title>flag_TH_S</title><g id="asSettings"><g id="asFlags-icons"><g id="asflag_TH"><path id="asboundingbox" class="asst0" d="M-.1-.1h22.2v22.2H-.1z"/><path id="asShape" class="asst1" d="M11 2.7c-4.6 0-8.3 3.7-8.3 8.3 0 4.6 3.7 8.3 8.3 8.3 4.6 0 8.3-3.7 8.3-8.3 0-4.6-3.7-8.3-8.3-8.3z"/></g></g></g><circle id="as_Ellipse_2" class="asst2" cx="11" cy="11" r="7.2"/><defs><circle id="asSVGID_1_" cx="11" cy="11" r="7.2"/></defs><clipPath id="asSVGID_2_"><use xlink:href="#asSVGID_1_" overflow="visible"/></clipPath><g class="asst3"><g id="asRectangle-path"><path class="asst4" d="M19.8 16H2.2v2.8h17.6c.1-1 0-1.9 0-2.8z"/><path class="asst2" d="M19.7 13.2H2.2V16h17.6c0-.9 0-1.9-.1-2.8z"/><path class="asst5" d="M19.7 11c0-.9 0-1.8.1-2.8H2.1c0 1.7.1 3.3.1 5h17.6c-.1-.7-.1-1.4-.1-2.2z"/><path class="asst2" d="M19.9 5.5H2.1v2.8h17.7c0-1 .1-1.9.1-2.8z"/><path class="asst4" d="M19.8 3.2H2.1V6h17.8c0-.9-.1-1.8-.1-2.8z"/></g></g></svg><svg id="flag-circle-vi-small" viewBox="0 0 22 22" width="22" height="22" y="419" xmlns="http://www.w3.org/2000/svg"><style>.atst0{opacity:.6;fill:#111;fill-opacity:0;enable-background:new}.atst1{fill:none;stroke:gray;stroke-width:.5473}.atst2{fill:#d0011b}.atst3{fill:#fcd116}</style><title>flag_VN_S</title><g id="atSettings"><g id="atFlags-icons"><g id="atflag_VN"><path id="atboundingbox" class="atst0" d="M0 0h22v22H0z"/><path id="atShape" class="atst1" d="M2.8 11c0 4.6 3.7 8.2 8.2 8.2s8.2-3.7 8.2-8.2-3.6-8.2-8.2-8.2S2.8 6.4 2.8 11z"/><g id="atVN"><circle id="atOval" class="atst2" cx="11" cy="11" r="7.1"/><path id="atShape-2" class="atst3" d="M11 6.6l1.1 3.3h3.3l-2.7 1.8 1 3.2-2.7-2-2.7 2 1.1-3.2-2.8-1.8h3.3L11 6.6z"/></g></g></g></g></svg><svg width="34" height="22" viewBox="0 0 34 22" id="free-shipping" y="441" xmlns="http://www.w3.org/2000/svg"><title>Freeshipping</title><path d="M34 16.557c0 .832-.796 1.77-.999 1.98-.1.106-.299.207-.4.207-.1 0-.299-.105-.4-.207-.198-.206-.198-.625 0-.831.3-.313.7-.938.7-1.145v-3.543c0-.625 0-1.355-.3-1.769-.198-.312-.299-.625-.497-.832-.101-.207-.198-.418-.3-.52-.298-.624-.699-1.249-.998-1.874-.198-.418-.497-.937-.7-1.355l-.4-.731c-.299-.52-1.095-1.043-1.693-1.043h-5.778V17.6h.999c.3 0 .598.312.598.625 0 .312-.299.625-.598.625h-1.597c-.3 0-.598-.313-.598-.625V4.269c0-.312.299-.625.598-.625h6.283c.998 0 2.195.73 2.692 1.668l.396.726c.198.418.498.938.7 1.356.299.625.7 1.25.998 1.875.101.207.198.418.3.625.198.312.299.52.497.832.4.73.4 1.667.4 2.394L34 16.557zM17.15 7.499v.73h-3.19V3.958h3.093v.73h-2.297V5.73h2.195v.73h-2.195V7.6h2.394v-.1zm2.393 11.144h-7.48c-.298 0-.598-.312-.598-.625 0-.312.3-.625.599-.625h7.277V1.043H1.197v16.35h1.095c.3 0 .599.313.599.625 0 .313-.3.625-.599.625H1c-.498 0-.999-.418-.999-.832V.836C0 .312.4 0 .999 0h18.447c.598 0 .998.312.998.832v16.975c.097.524-.404.836-.901.836zM5.983 4.687H3.89V5.73h1.795v.73H3.89v1.876h-.7V4.062H6.08v.625h-.097zm3.388 2.289l.797 1.25H9.27l-.598-.938c-.101-.207-.3-.418-.4-.52l-.199-.206c-.1 0-.1-.106-.198-.106H7.08v1.77h-.7v-4.27h1.897c.4 0 .598 0 .796.106.198.106.4.207.497.418.101.207.198.418.198.625 0 .313-.1.625-.299.832-.1.207-.299.313-.598.313 0 0 .101 0 .101.105.101.207.303.414.4.62zm-.497-1.457c.101-.106.101-.207.101-.312 0-.207-.101-.313-.198-.419-.101-.105-.3-.105-.598-.105H7.083v1.144h.999c.198 0 .4 0 .497-.105.194-.097.295-.097.295-.203zm4.585 1.98v.73h-3.19V3.958h3.092v.73H11.07V5.73h2.191v.73h-2.195V7.6h2.394v-.1zm-6.38 6.77c2.094 0 3.691 1.769 3.691 3.855 0 2.086-1.694 3.855-3.691 3.855-2.094 0-3.691-1.77-3.691-3.855 0-2.086 1.698-3.856 3.691-3.856zm0 6.561c1.395 0 2.591-1.25 2.591-2.706 0-1.457-1.196-2.711-2.591-2.711-1.395 0-2.591 1.25-2.591 2.706 0 1.461 1.196 2.711 2.591 2.711zm23.133-10.417H23.63c-.198 0-.497-.207-.497-.418V6.25c0-.207.198-.419.497-.419h3.691c.599 0 1.395.419 1.694 1.043l.198.419c.101.206.3.519.4.73.199.418.4.73.599 1.043l.198.313c.101.105.101.206.198.418a.326.326 0 0 1 0 .418c-.097.097-.198.198-.396.198zm-.7-.937c-.198-.418-.4-.73-.598-1.145-.1-.207-.299-.52-.4-.73l-.198-.418c-.198-.313-.599-.52-.898-.52h-3.19v2.813h5.284zm-1.495 4.792c2.094 0 3.69 1.77 3.69 3.856s-1.693 3.855-3.69 3.855c-2.095 0-3.691-1.77-3.691-3.855 0-2.086 1.596-3.856 3.69-3.856zm0 6.562c1.394 0 2.591-1.25 2.591-2.706 0-1.457-1.193-2.711-2.591-2.711-1.4 0-2.592 1.25-2.592 2.706 0 1.461 1.197 2.711 2.592 2.711z" fill="#9CA73B" fill-rule="evenodd"/></svg><svg width="34" height="22" viewBox="0 0 34 22" id="free-shipping-grey" y="463" xmlns="http://www.w3.org/2000/svg"><title>Free-Shipping grey</title><path d="M34 16.557c0 .832-.796 1.77-.999 1.98-.1.106-.299.207-.4.207-.1 0-.299-.105-.4-.207-.198-.206-.198-.625 0-.831.3-.313.7-.938.7-1.145v-3.543c0-.625 0-1.355-.3-1.769-.198-.312-.299-.625-.497-.832-.101-.207-.198-.418-.3-.52-.298-.624-.699-1.249-.998-1.874-.198-.418-.497-.937-.7-1.355l-.4-.731c-.299-.52-1.095-1.043-1.693-1.043h-5.778V17.6h.999c.3 0 .598.312.598.625 0 .312-.299.625-.598.625h-1.597c-.3 0-.598-.313-.598-.625V4.269c0-.312.299-.625.598-.625h6.283c.998 0 2.195.73 2.692 1.668l.396.726c.198.418.498.938.7 1.356.299.625.7 1.25.998 1.875.101.207.198.418.3.625.198.312.299.52.497.832.4.73.4 1.667.4 2.394L34 16.557zM17.15 7.499v.73h-3.19V3.958h3.093v.73h-2.297V5.73h2.195v.73h-2.195V7.6h2.394v-.1zm2.393 11.144h-7.48c-.298 0-.598-.312-.598-.625 0-.312.3-.625.599-.625h7.277V1.043H1.197v16.35h1.095c.3 0 .599.313.599.625 0 .313-.3.625-.599.625H1c-.498 0-.999-.418-.999-.832V.836C0 .312.4 0 .999 0h18.447c.598 0 .998.312.998.832v16.975c.097.524-.404.836-.901.836zM5.983 4.687H3.89V5.73h1.795v.73H3.89v1.876h-.7V4.062H6.08v.625h-.097zm3.388 2.289l.797 1.25H9.27l-.598-.938c-.101-.207-.3-.418-.4-.52l-.199-.206c-.1 0-.1-.106-.198-.106H7.08v1.77h-.7v-4.27h1.897c.4 0 .598 0 .796.106.198.106.4.207.497.418.101.207.198.418.198.625 0 .313-.1.625-.299.832-.1.207-.299.313-.598.313 0 0 .101 0 .101.105.101.207.303.414.4.62zm-.497-1.457c.101-.106.101-.207.101-.312 0-.207-.101-.313-.198-.419-.101-.105-.3-.105-.598-.105H7.083v1.144h.999c.198 0 .4 0 .497-.105.194-.097.295-.097.295-.203zm4.585 1.98v.73h-3.19V3.958h3.092v.73H11.07V5.73h2.191v.73h-2.195V7.6h2.394v-.1zm-6.38 6.77c2.094 0 3.691 1.769 3.691 3.855 0 2.086-1.694 3.855-3.691 3.855-2.094 0-3.691-1.77-3.691-3.855 0-2.086 1.698-3.856 3.691-3.856zm0 6.561c1.395 0 2.591-1.25 2.591-2.706 0-1.457-1.196-2.711-2.591-2.711-1.395 0-2.591 1.25-2.591 2.706 0 1.461 1.196 2.711 2.591 2.711zm23.133-10.417H23.63c-.198 0-.497-.207-.497-.418V6.25c0-.207.198-.419.497-.419h3.691c.599 0 1.395.419 1.694 1.043l.198.419c.101.206.3.519.4.73.199.418.4.73.599 1.043l.198.313c.101.105.101.206.198.418a.326.326 0 0 1 0 .418c-.097.097-.198.198-.396.198zm-.7-.937c-.198-.418-.4-.73-.598-1.145-.1-.207-.299-.52-.4-.73l-.198-.418c-.198-.313-.599-.52-.898-.52h-3.19v2.813h5.284zm-1.495 4.792c2.094 0 3.69 1.77 3.69 3.856s-1.693 3.855-3.69 3.855c-2.095 0-3.691-1.77-3.691-3.855 0-2.086 1.596-3.856 3.69-3.856zm0 6.562c1.394 0 2.591-1.25 2.591-2.706 0-1.457-1.193-2.711-2.591-2.711-1.4 0-2.592 1.25-2.592 2.706 0 1.461 1.197 2.711 2.592 2.711z" fill="#9C999D" fill-rule="evenodd"/></svg><svg width="13" height="20" viewBox="0 0 13 20" id="icon-arrow" y="485" xmlns="http://www.w3.org/2000/svg"><title>icon-arrow</title><path d="M.75 2.72L2.91.56l9.34 9.35-9.34 9.34-2.16-2.16 7.19-7.18z" fill="#7F7F7F" fill-rule="evenodd"/></svg><svg width="20" height="19" viewBox="0 0 20 19" id="icon-magnify" y="505" xmlns="http://www.w3.org/2000/svg"><title>icon-magnify</title><path d="M7.97 11.85a4.86 4.86 0 1 1 0-9.72 4.86 4.86 0 0 1 0 9.72zm6.584.091h-.867l-.302-.302a7.054 7.054 0 1 0-.766.766l.302.302v.856l5.431 5.432 1.623-1.623-5.421-5.43z" fill="#FFF" fill-rule="evenodd"/></svg><svg width="15" height="26" viewBox="0 0 15 26" id="location-green" y="524" xmlns="http://www.w3.org/2000/svg"><title>location-green</title><g fill="none" fill-rule="evenodd"><path d="M11.121 13.494c3.183-2.174 4.024-6.937 1.882-10.094C10.86.24 6.545-.557 3.362 1.617.177 3.794-.664 8.115 1.479 11.274a6.81 6.81 0 0 0 2.45 2.196l3.559 11.363s3.325-11.128 3.633-11.339" fill="#FFF"/><path d="M7.495 25.998l-3.85-12.293a7.104 7.104 0 0 1-2.448-2.239C-1.047 8.157-.163 3.612 3.17 1.335A7.309 7.309 0 0 1 7.306.05a7.212 7.212 0 0 1 5.979 3.156c2.265 3.34 1.365 8.245-1.92 10.534-.355.686-2.352 7.179-3.55 11.19l-.32 1.067zM7.306.735A6.63 6.63 0 0 0 3.554 1.9C.532 3.965-.272 8.084 1.76 11.081a6.433 6.433 0 0 0 2.328 2.086l.123.066L7.48 23.67c3.06-10.191 3.331-10.377 3.45-10.458 2.974-2.032 3.828-6.617 1.79-9.619A6.531 6.531 0 0 0 7.307.735z" fill="#107542"/><path d="M10.417 3.802l-4.2 5.247L3.96 7.36l-1.077.23 3.163 2.494.671-.143 4.164-5.445a4.678 4.678 0 0 0-.464-.695" fill="#107542"/></g></svg><svg width="15" height="26" viewBox="0 0 15 26" id="location-red" y="550" xmlns="http://www.w3.org/2000/svg"><title>location-red</title><g fill="none" fill-rule="evenodd"><path d="M10.537 13.102c3.182-2.175 4.023-6.938 1.881-10.095C10.275-.151 5.96-.95 2.778 1.225-.408 3.4-1.25 7.722.893 10.88a6.81 6.81 0 0 0 2.45 2.196L6.903 24.44s3.325-11.128 3.634-11.338" fill="#FFF"/><path d="M7.248 25.948l-3.85-12.294a7.104 7.104 0 0 1-2.449-2.239C-1.295 8.107-.41 3.562 2.922 1.284A7.309 7.309 0 0 1 7.06 0a7.212 7.212 0 0 1 5.978 3.156c2.266 3.34 1.366 8.245-1.92 10.535-.355.686-2.352 7.178-3.55 11.19l-.32 1.067zM7.058.684A6.63 6.63 0 0 0 3.307 1.85C.284 3.915-.52 8.033 1.513 11.03a6.433 6.433 0 0 0 2.328 2.087l.123.065 3.269 10.436c3.06-10.19 3.33-10.376 3.449-10.457 2.974-2.033 3.828-6.617 1.791-9.62A6.531 6.531 0 0 0 7.06.684z" fill="#BD252C"/><path d="M6.986 7.516l1.406 2.211h.884L7.44 6.968 9.19 4.35h-.848l-1.32 2.057L5.69 4.35h-.891l1.75 2.618-1.867 2.76h.859l1.445-2.212" fill="#BD252B"/></g></svg><svg width="20" height="23" viewBox="0 0 20 23" id="logo-buyer-protection-small" y="576" xmlns="http://www.w3.org/2000/svg"><title>UPS small</title><g fill="none" fill-rule="evenodd"><path d="M18.5 6.662c0 2.459-.885 5.552-2.5 8.407-1.5 2.776-3.577 5.115-5.77 6.345 0 0-.115 0-.115.119 0 0-.115.119-.192.119h-.308s-.115 0-.115-.12c-2.077-1.348-4.27-3.687-5.77-6.463-1.576-2.855-2.5-5.83-2.5-8.407 0-.198.116-.396.308-.515C3.731 4.917 6.731 3.37 9.885 3.37c3.192 0 6.153 1.546 8.269 2.776.27.119.346.317.346.515zM0 5.75c0 2.855 1 6.464 2.885 9.755 1.807 3.173 4.192 5.948 6.653 7.376 0 0 .116 0 .116.119h.308c.115 0 .192 0 .384-.119 0 0 .116 0 .116-.119 2.5-1.546 4.884-4.203 6.653-7.376C18.923 12.095 20 8.606 20 5.631 19.885 5.433 13.615.079 9.962.079 6.308.08 0 5.433 0 5.75z" fill="#1A3646"/><path d="M2 6.98v.198c0 2.379.808 5.115 2.308 7.812 1.384 2.577 3.384 4.719 5.384 5.948H10.115c.116 0 .193 0 .308-.119h.115c2-1.23 3.885-3.37 5.385-5.948 1.5-2.657 2.308-5.433 2.308-7.812 0-.12 0-.199-.116-.318l-7.961 2.062L2 6.98z" fill="#1A3646"/><path d="M9.846 8.209l7.462-1.864c-1.808-1.031-4.462-2.38-7.462-2.38S4.27 5.196 2.5 6.346l7.346 1.864z" fill="#C99B2E"/><path d="M13.615 13.959c0 2.141-1.692 3.807-3.692 3.807s-3.692-1.745-3.692-3.807 1.577-3.887 3.692-3.887 3.692 1.745 3.692 3.887m.308 0c0-2.26-1.808-4.085-3.961-4.085C7.769 9.874 6 11.738 6 13.96c0 2.26 1.808 4.084 3.962 4.084 2.192.04 3.961-1.943 3.961-4.084" fill="#FFF"/><path d="M13.615 13.959c0 2.141-1.692 3.807-3.692 3.807s-3.692-1.745-3.692-3.807 1.577-3.887 3.692-3.887 3.692 1.745 3.692 3.887zm.308 0c0-2.26-1.808-4.085-3.961-4.085C7.769 9.874 6 11.738 6 13.96c0 2.26 1.808 4.084 3.962 4.084 2.192.04 3.961-1.943 3.961-4.084z" stroke="#FFF" stroke-width=".2"/><path d="M11.346 14.276c-.115-.12-.192-.12-.308-.12l-.692-1.625h-.192l-1.192 2.776h.192l.308-.714v-.119c.192-.198.615-.317.884-.317.308 0 .616.119.885.198l.115-.08zm-.615-.198h-.385c-.308 0-.5.119-.692.198l.615-1.428.462 1.23z" fill="#FFF"/><path d="M11.346 14.276c-.115-.12-.192-.12-.308-.12l-.692-1.625h-.192l-1.192 2.776h.192l.308-.714v-.119c.192-.198.615-.317.884-.317.308 0 .616.119.885.198l.115-.08zm-.615-.198h-.385c-.308 0-.5.119-.692.198l.615-1.428.462 1.23z" stroke="#FFF" stroke-width=".2"/><path d="M10.654 12.531l.077.198h1.423l-1.5 2.459.077.119h1.5l.115-.198h-1.384l1.384-2.38.077-.198h-1.77z" fill="#FFF"/><path d="M10.654 12.531l.077.198h1.423l-1.5 2.459.077.119h1.5l.115-.198h-1.384l1.384-2.38.077-.198h-1.77z" stroke="#FFF" stroke-width=".2"/><path d="M7.462 12.531v2.776h1.307l.077-.198H7.77V12.53h-.307z" fill="#FFF"/><path d="M7.462 12.531v2.776h1.307l.077-.198H7.77V12.53h-.307z" stroke="#FFF" stroke-width=".2"/></g></svg><svg width="17" height="18" viewBox="0 0 17 18" id="logo-satisfaction-guaranteed" y="599" xmlns="http://www.w3.org/2000/svg"><title>SG small</title><defs><path id="bba" d="M0 0h16.861v17.133H0z"/><path id="bbc" d="M0 0h16.861v17.133H0z"/></defs><g fill="none" fill-rule="evenodd"><mask id="bbb" fill="#fff"><use xlink:href="#bba"/></mask><path d="M9.576 10.467c-.07.033-.14.1-.209.133-.312.167-.624.267-.971.267-.174 0-.347-.034-.52-.067-.105-.033-.174-.067-.278-.1-.139-.067-.243-.1-.347-.167-2.463-1.5-4.892-3.5-7.216-5.933.347 1.967 1.145 4.133 2.29 6.167 1.56 2.766 3.642 5.066 5.793 6.366a.11.11 0 0 0 .07.034c.034 0 .034.033.07.033.103.033.242 0 .346-.033.035 0 .035-.034.07-.034 2.15-1.3 4.232-3.633 5.759-6.366 1.145-2.067 1.943-4.234 2.29-6.2-2.256 2.4-4.684 4.4-7.147 5.9" fill="#CA9B2E" mask="url(#bbb)"/><g><mask id="bbd" fill="#fff"><use xlink:href="#bbc"/></mask><path d="M8.153 9.133a.43.43 0 0 1 .104.067s.035 0 .07.033c.104.034.208 0 .312-.033l.034-.033.07-.067c2.775-1.7 5.55-4.1 8.084-6.967l-.105-.1C14.606.8 11.588.1 8.431.1 5.273.1 2.22.8.139 2.033c-.035.034-.104.067-.139.1 2.567 2.9 5.343 5.3 8.153 7" fill="#193546" mask="url(#bbd)"/></g></g></svg><svg version="1" viewBox="0 0 18.8 18.1" width="18.8" height="18.1" id="magnify-grey" y="617" xmlns="http://www.w3.org/2000/svg"><path d="M7.8 13.6c-3.2 0-5.7-2.6-5.7-5.7 0-3.2 2.6-5.7 5.7-5.7 3.2 0 5.7 2.6 5.7 5.7.1 3.2-2.5 5.7-5.7 5.7z" fill="none" stroke="#8e8e8d" stroke-width="2" stroke-miterlimit="10"/><path d="M16.5 15.2l-3.7-3.4c-.1-.1-.4-.1-.5 0l-.3.3c-.1.1-.1.4 0 .5l3.7 3.4c.1.1.4.1.5 0l.3-.3c.1-.1.1-.3 0-.5z" fill="#8e8e8d" stroke="#8e8e8d" stroke-miterlimit="10"/></svg><svg width="30" height="22" viewBox="0 0 30 22" id="oversea" y="636" xmlns="http://www.w3.org/2000/svg"><title>oversea</title><path d="M29.978 6.033c-.1.408-.398.922-1.098 1.229l-10.073 4.195s-.9.307-1.795.307c-.696 0-1.198-.205-1.596-.51l-2.59-2.356c-.2-.102-.2-.306-.2-.51 0-.204.1-.408.3-.51.099 0 .596-.409 1.396-.409.298 0 .597 0 .9.102l1.296.409h.398c.299 0 .598-.102.9-.204l.597-.307-2.492-2.147c-.199-.102-.298-.408-.199-.612 0-.204.2-.408.398-.51.1 0 .697-.307 1.497-.307.597 0 1.098.103 1.695.307 1.297.51 3.39 1.33 3.988 1.33l3.29-1.33c.1 0 .797-.307 1.696-.307.697 0 1.198.205 1.596.613l.1.102c-.303.098.095.71-.004 1.425zm-1.397-.51c-.1-.102-.398-.204-.597-.204-.597 0-1.098.204-1.098.204l-3.39 1.432h-.399c-1.098 0-3.988-1.126-4.489-1.432-.298-.102-.497-.204-.796-.204l2.193 1.84c.199.103.298.409.199.613 0 .204-.2.408-.398.51l-1.596.715c-.398.204-.9.306-1.397.306s-.796-.102-.796-.102l-1.198-.409 1.497 1.331c.199.204.497.204.796.204.597 0 1.297-.204 1.297-.204l10.073-4.192c.199-.102.398-.204.398-.306-.2 0-.299-.102-.299-.102zm-8.477-2.25c-1.595-1.228-3.49-1.942-5.683-1.942-5.185 0-9.372 4.294-9.372 9.612 0 1.127.2 2.147.498 3.172 1.695-.408 4.087-1.229 7.378-2.556.299-.102.697 0 .9.409.099.306 0 .714-.399.922-3.092 1.229-5.484 2.045-7.279 2.555 1.596 3.07 4.688 5.217 8.278 5.217 5.186 0 9.372-4.294 9.372-9.613v-.102l1.298-.51v.612c0 6.033-4.788 10.943-10.67 10.943-4.286 0-7.88-2.555-9.674-6.24-1 .204-1.795.306-2.392.306-1.298 0-1.795-.409-2.094-.817-.899-1.33.796-3.273 1.099-3.682.199-.306.696-.306.899 0 .298.205.298.715 0 .923-.597.714-1.098 1.739-.999 1.943 0 0 .398.51 2.893 0-.298-1.127-.497-2.25-.497-3.478C3.649 4.91 8.436 0 14.322 0c3.49 0 6.483 1.637 8.477 4.294-.402-.102-1.596-.51-2.695-1.02z" fill="#9CA73B" fill-rule="evenodd"/></svg><svg width="30" height="22" viewBox="0 0 30 22" id="oversea-grey" y="658" xmlns="http://www.w3.org/2000/svg"><title>oversea grey</title><path d="M29.978 6.033c-.1.408-.398.922-1.098 1.229l-10.073 4.195s-.9.307-1.795.307c-.696 0-1.198-.205-1.596-.51l-2.59-2.356c-.2-.102-.2-.306-.2-.51 0-.204.1-.408.3-.51.099 0 .596-.409 1.396-.409.298 0 .597 0 .9.102l1.296.409h.398c.299 0 .598-.102.9-.204l.597-.307-2.492-2.147c-.199-.102-.298-.408-.199-.612 0-.204.2-.408.398-.51.1 0 .697-.307 1.497-.307.597 0 1.098.103 1.695.307 1.297.51 3.39 1.33 3.988 1.33l3.29-1.33c.1 0 .797-.307 1.696-.307.697 0 1.198.205 1.596.613l.1.102c-.303.098.095.71-.004 1.425zm-1.397-.51c-.1-.102-.398-.204-.597-.204-.597 0-1.098.204-1.098.204l-3.39 1.432h-.399c-1.098 0-3.988-1.126-4.489-1.432-.298-.102-.497-.204-.796-.204l2.193 1.84c.199.103.298.409.199.613 0 .204-.2.408-.398.51l-1.596.715c-.398.204-.9.306-1.397.306s-.796-.102-.796-.102l-1.198-.409 1.497 1.331c.199.204.497.204.796.204.597 0 1.297-.204 1.297-.204l10.073-4.192c.199-.102.398-.204.398-.306-.2 0-.299-.102-.299-.102zm-8.477-2.25c-1.595-1.228-3.49-1.942-5.683-1.942-5.185 0-9.372 4.294-9.372 9.612 0 1.127.2 2.147.498 3.172 1.695-.408 4.087-1.229 7.378-2.556.299-.102.697 0 .9.409.099.306 0 .714-.399.922-3.092 1.229-5.484 2.045-7.279 2.555 1.596 3.07 4.688 5.217 8.278 5.217 5.186 0 9.372-4.294 9.372-9.613v-.102l1.298-.51v.612c0 6.033-4.788 10.943-10.67 10.943-4.286 0-7.88-2.555-9.674-6.24-1 .204-1.795.306-2.392.306-1.298 0-1.795-.409-2.094-.817-.899-1.33.796-3.273 1.099-3.682.199-.306.696-.306.899 0 .298.205.298.715 0 .923-.597.714-1.098 1.739-.999 1.943 0 0 .398.51 2.893 0-.298-1.127-.497-2.25-.497-3.478C3.649 4.91 8.436 0 14.322 0c3.49 0 6.483 1.637 8.477 4.294-.402-.102-1.596-.51-2.695-1.02z" fill="#9C999D" fill-rule="evenodd"/></svg><svg id="product-rating-grey" viewBox="-300 390 11 13" width="11" height="13" y="680" xmlns="http://www.w3.org/2000/svg"><style>.bfst0{fill:#e2e2e3}.bfst1{fill:#fff}</style><title>rating grey</title><g id="bfPage-1"><g id="bfrating-grey"><g id="bfShape"><path class="bfst0" d="M-294.6 402c3 0 5.4-2.4 5.4-5.4 0-3-2.4-5.4-5.4-5.4s-5.4 2.4-5.4 5.4c0 2.9 2.4 5.4 5.4 5.4"/><path class="bfst1" d="M-294.6 392.8l.9 2.8h2.9l-2.4 1.7.9 2.8-2.3-1.7-2.3 1.7.9-2.8-2.3-1.7h2.9l.8-2.8z"/></g></g></g></svg><svg id="product-rating-orange" viewBox="-300 390 11 13" width="11" height="13" y="693" xmlns="http://www.w3.org/2000/svg"><style>.bgst0{fill:#ffab24}.bgst1{fill:#fff}</style><title>rating blue</title><g id="bgPage-1"><g id="bgrating-blue"><g id="bgShape"><path class="bgst0" d="M-294.5 401.9c3 0 5.4-2.4 5.4-5.4s-2.4-5.4-5.4-5.4-5.4 2.4-5.4 5.4c0 2.9 2.4 5.4 5.4 5.4"/><path class="bgst1" d="M-294.5 392.7l.9 2.8h2.9l-2.4 1.7.9 2.8-2.3-1.7-2.3 1.7.9-2.8-2.3-1.7h2.9l.8-2.8z"/></g></g></g></svg><svg width="32" height="32" viewBox="-1 -1 33 33" id="social-blogger" y="706" xmlns="http://www.w3.org/2000/svg"><title>blogger</title><g fill="none" fill-rule="evenodd"><circle stroke="#F57D00" stroke-width="2" cx="15" cy="15" r="15"/><path d="M22 16.108c0-.979 0-1.678-.495-2.272-.53-.699-1.377-.804-2.084-.839.106-.489.141-1.013.106-1.607 0-1.957-1.484-3.355-3.497-3.39H12.85c-1.202 0-2.155.35-2.827 1.048-.423.42-.953 1.189-1.024 2.412v5.242c0 1.397.212 2.41.954 3.18.706.734 1.766 1.118 3.108 1.118h4.84c1.201 0 2.226-.42 2.968-1.153.741-.734 1.13-1.782 1.13-3.04v-.7zm-8.832-5.487h2.65c.636 0 1.13.56 1.095 1.188 0 .63-.53 1.049-1.13 1.049h-2.685c-.636 0-1.13-.525-1.095-1.154a1.158 1.158 0 0 1 1.165-1.083zm4.981 7.374h-5.298a1.11 1.11 0 0 1-1.13-1.119 1.11 1.11 0 0 1 1.13-1.118h5.298c.636 0 1.13.49 1.13 1.118 0 .63-.529 1.119-1.13 1.119z" fill="#F57D00"/></g></svg><svg width="32" height="32" viewBox="-1 -1 33 33" id="social-facebook" y="738" xmlns="http://www.w3.org/2000/svg"><title>facebook</title><g fill="none" fill-rule="evenodd"><circle stroke="#3B5998" stroke-width="2" cx="15" cy="15" r="15"/><path d="M18.5 10.345h-1.44c-1.138 0-1.366.483-1.366 1.207v1.586h2.73v2.483h-2.73V22h-2.843v-6.345H10.5v-2.517h2.35V11.31c0-2.138 1.441-3.31 3.527-3.31H18.5v2.345z" fill="#3B5998"/></g></svg><svg width="32" height="32" viewBox="-1 -1 33 33" id="social-google" y="770" xmlns="http://www.w3.org/2000/svg"><title>google</title><g fill="none" fill-rule="evenodd"><circle stroke="#DC4E41" stroke-width="2" cx="15" cy="15" r="15"/><g transform="translate(8 8)" fill="#DC4E41"><path d="M7.912 9.143L7.2 8.57c-.225-.19-.525-.419-.525-.876s.3-.724.563-.99c.824-.686 1.687-1.372 1.687-2.857 0-1.524-.938-2.362-1.425-2.743h1.238l1.274-.838h-3.9c-1.087 0-2.625.266-3.75 1.219-.862.762-1.275 1.79-1.275 2.704 0 1.562 1.2 3.162 3.3 3.162.188 0 .413-.038.638-.038a1.675 1.675 0 0 0-.188.8c0 .61.3 1.029.6 1.372-.9.076-2.55.152-3.787.914-1.162.724-1.537 1.752-1.537 2.476 0 1.486 1.387 2.895 4.275 2.895 3.412 0 5.25-1.904 5.25-3.81-.075-1.37-.863-2.056-1.726-2.818zM5.287 6.819c-1.724 0-2.474-2.248-2.474-3.619 0-.533.112-1.067.45-1.486.3-.419.862-.685 1.387-.685 1.65 0 2.512 2.285 2.512 3.733 0 .38-.037 1.028-.487 1.486-.337.304-.862.571-1.388.571zm.038 8.114c-2.138 0-3.488-1.028-3.488-2.476 0-1.447 1.275-1.905 1.726-2.095.825-.267 1.912-.343 2.1-.343.187 0 .3 0 .45.038 1.5 1.105 2.174 1.638 2.174 2.667-.037 1.295-1.05 2.21-2.962 2.21zM12.938 6.781v-2.02h-.976v2.02H9.976v.99h1.988V9.83h.975V7.77h1.987v-.99h-1.988z"/></g></g></svg><svg width="32" height="32" viewBox="-1 -1 33 33" id="social-instagram" y="802" xmlns="http://www.w3.org/2000/svg"><title>instagram</title><g fill="none" fill-rule="evenodd"><circle stroke="#3F729B" stroke-width="2" cx="15" cy="15" r="15"/><path d="M20.6 8H9.4C8.63 8 8 8.63 8 9.4v11.2c0 .77.63 1.4 1.4 1.4h11.2c.77 0 1.4-.63 1.4-1.4V9.4c0-.77-.63-1.4-1.4-1.4zM15 12.2c1.54 0 2.8 1.26 2.8 2.8 0 1.54-1.26 2.8-2.8 2.8-1.54 0-2.8-1.26-2.8-2.8 0-1.54 1.26-2.8 2.8-2.8zm-5.25 8.4c-.21 0-.35-.14-.35-.35V14.3h1.47c-.07.21-.07.49-.07.7 0 2.31 1.89 4.2 4.2 4.2 2.31 0 4.2-1.89 4.2-4.2 0-.21 0-.49-.07-.7h1.47v5.95c0 .21-.14.35-.35.35H9.75zm10.85-9.45c0 .21-.14.35-.35.35h-1.4c-.21 0-.35-.14-.35-.35v-1.4c0-.21.14-.35.35-.35h1.4c.21 0 .35.14.35.35v1.4z" fill="#3F729B"/></g></svg><svg width="32" height="32" viewBox="-1 -1 33 33" id="social-linkedIn" y="834" xmlns="http://www.w3.org/2000/svg"><title>linked</title><g fill="none" fill-rule="evenodd"><circle stroke="#0077B5" stroke-width="2" cx="15" cy="15" r="15"/><g transform="translate(8 7)" fill="#0077B5"><path d="M1.842.147C.958.147.222.884.222 1.768c0 .885.736 1.621 1.62 1.621.884 0 1.621-.736 1.621-1.62 0-.922-.7-1.622-1.62-1.622zM.442 4.642h2.8v9.026h-2.8zM10.39 4.384c-1.364 0-2.285.737-2.653 1.474H7.7V4.605H5.01v9.027h2.8V9.21c0-1.18.222-2.322 1.695-2.322 1.437 0 1.474 1.364 1.474 2.395v4.384h2.8V8.695c0-2.432-.516-4.31-3.39-4.31z"/></g></g></svg><svg width="32" height="32" viewBox="-1 -1 33 33" id="social-pinterest" y="866" xmlns="http://www.w3.org/2000/svg"><title>pinterest</title><g fill="none" fill-rule="evenodd"><circle stroke="#BD081C" stroke-width="2" cx="15" cy="15" r="15"/><path d="M13.933 17.92c-.405 2.066-.9 4.046-2.365 5.08-.453-3.121.664-5.465 1.182-7.954-.883-1.447.107-4.36 1.971-3.642 2.294.883-1.987 5.38.887 5.942 3 .586 4.226-5.063 2.365-6.9-2.688-2.652-7.825-.06-7.194 3.737.154.93 1.14 1.21.395 2.492-1.721-.37-2.235-1.69-2.168-3.45.106-2.88 2.66-4.896 5.222-5.175 3.24-.352 6.282 1.157 6.701 4.121.473 3.346-1.462 6.969-4.927 6.708-.939-.07-1.333-.523-2.07-.958z" fill="#BD081C"/></g></svg><svg width="32" height="32" viewBox="-1 -1 33 33" id="social-tumblr" y="898" xmlns="http://www.w3.org/2000/svg"><title>tumblr</title><g fill="none" fill-rule="evenodd"><circle stroke="#35465C" stroke-width="2" cx="15" cy="15" r="15"/><path d="M17.898 19.035c-.212.038-2.442 1.077-2.442-1.423V13.344h2.62v-2.46H15.49V7h-2.23s0 .423-.177 1.038c-.39 1.461-1.38 2.807-2.584 3.192v2.114h1.558v4.538c0 5.613 5.911 4.075 6.442 3.422l-.602-2.269z" fill="#35465C"/></g></svg><svg width="32" height="32" viewBox="-1 -1 33 33" id="social-twitter" y="930" xmlns="http://www.w3.org/2000/svg"><title>twitter</title><g fill="none" fill-rule="evenodd"><circle stroke="#55ACEE" stroke-width="2" cx="15" cy="15" r="15"/><path d="M22.474 11.341c-.035-.033-.07-.033-.07-.033a5.947 5.947 0 0 1-1.324.369 2.68 2.68 0 0 0 1.01-1.375c0-.034 0-.067-.034-.067-.035-.034-.07-.034-.07 0-.558.302-1.115.536-1.742.637-.558-.537-1.325-.872-2.091-.872-1.603 0-2.893 1.24-2.893 2.784 0 .2.035.368.07.536a7.768 7.768 0 0 1-5.715-2.783c0-.034-.035-.034-.07-.034-.034 0-.034 0-.07.034a2.855 2.855 0 0 0-.383 1.408c0 .872.419 1.677 1.08 2.18a2.703 2.703 0 0 1-1.01-.302h-.07c-.034 0-.034.034-.034.067v.034c0 1.24.836 2.314 2.056 2.683a4.74 4.74 0 0 1-.976 0c-.035 0-.035 0-.07.033 0 .034-.035.034 0 .067.349 1.073 1.36 1.845 2.51 1.945a5.872 5.872 0 0 1-3.346 1.04c-.21 0-.453 0-.662-.033-.035 0-.07 0-.07.033 0 .034 0 .067.035.067A8.41 8.41 0 0 0 12.925 21c5.088 0 8.155-3.99 8.155-7.848v-.335a6.04 6.04 0 0 0 1.394-1.408c.035-.034.035-.068 0-.068z" fill="#55ACEE"/></g></svg><svg width="32" height="32" viewBox="-1 -1 33 33" id="social-youtube" y="962" xmlns="http://www.w3.org/2000/svg"><title>youtube</title><g fill="none" fill-rule="evenodd"><circle stroke="#CD201F" stroke-width="2" cx="15" cy="15" r="15"/><g transform="translate(9 7)" fill="#CD201F"><path d="M11.6 7.679c-.133-.643-.633-1.143-1.233-1.215-1.434-.178-2.9-.178-4.334-.178-1.433 0-2.9 0-4.333.178-.6.072-1.1.572-1.233 1.215-.2.928-.2 1.964-.2 2.928s0 2 .2 2.929c.133.643.633 1.143 1.233 1.214 1.433.179 2.9.179 4.333.179 1.434 0 2.9 0 4.334-.179.6-.071 1.1-.571 1.233-1.214.2-.929.2-1.965.2-2.929 0-.964.033-2-.2-2.928zm-8.033.714h-.834v4.75h-.766v-4.75h-.834v-.786h2.434v.786zm2.1 4.786h-.7v-.465c-.267.357-.534.5-.8.5-.234 0-.367-.107-.434-.321-.066-.107-.066-.322-.066-.607v-3.25h.7v3.321c.033.107.066.179.166.179.134 0 .3-.107.434-.357V9.036h.7v4.143zm2.666-1.25c0 .392-.033.642-.066.821-.1.321-.3.464-.567.464-.233 0-.5-.143-.733-.464v.393h-.7V7.607h.7V9.43c.233-.286.466-.465.733-.465.267 0 .467.143.567.465.033.178.066.464.066.857v1.643zm2.634-.715h-1.4v.75c0 .393.133.572.366.572.167 0 .267-.107.3-.286v-.5h.7v.607c-.033.179-.066.322-.166.464-.2.286-.467.465-.834.465a.948.948 0 0 1-.833-.429c-.133-.214-.233-.536-.233-.964v-1.464c0-.429.066-.75.2-.965a.948.948 0 0 1 .833-.428c.367 0 .633.143.833.428.134.215.2.536.2.965v.785h.034z"/><path d="M9.9 9.643c-.233 0-.367.178-.367.571v.393h.7v-.393c.034-.357-.1-.571-.333-.571zM7.3 9.643c-.1 0-.233.071-.333.178v2.536c.133.143.233.179.333.179.2 0 .3-.179.3-.572v-1.75c.033-.357-.1-.571-.3-.571zM7.7 5.893c.267 0 .533-.179.8-.5v.464h.7V1.68h-.7v3.178c-.167.25-.3.357-.433.357-.1 0-.167-.071-.167-.178V1.679h-.7v3.285c0 .286.033.5.067.607.066.215.2.322.433.322zM2.8 3.571v2.286h.767V3.571L4.5.25h-.8l-.533 2.214L2.6.25h-.833c.166.536.333 1.036.5 1.571.3.75.466 1.358.533 1.75zM5.567 5.893a.948.948 0 0 0 .833-.429c.133-.214.233-.535.233-.964V3.036c0-.429-.066-.786-.233-1a.948.948 0 0 0-.833-.429.948.948 0 0 0-.834.429c-.166.214-.233.535-.233 1V4.5c0 .429.067.786.233.964.2.286.467.429.834.429zm-.334-3c0-.393.1-.572.334-.572.233 0 .333.179.333.572v1.75c0 .393-.1.571-.333.571-.234 0-.334-.178-.334-.571v-1.75z"/></g></g></svg><svg width="32" height="32" viewBox="-1 -1 33 33" id="social-zing" y="994" xmlns="http://www.w3.org/2000/svg"><title>zing</title><defs><path id="bqa" d="M10.592 11.25H4.676l6.512-8.936a.706.706 0 0 0 .12-.229 1.25 1.25 0 0 0 .214-.71C11.522.619 10.878 0 10.091 0H1.43C.644 0 0 .619 0 1.375S.644 2.75 1.431 2.75h5.917L.81 11.709c-.024.046-.048.068-.071.114-.167.23-.263.504-.263.802 0 .756.644 1.375 1.431 1.375h8.66c.787 0 1.431-.619 1.431-1.375.024-.756-.62-1.375-1.407-1.375z"/></defs><g fill="none" fill-rule="evenodd"><circle stroke="#39B7E2" stroke-width="2" cx="15" cy="15" r="15"/><g transform="translate(9 8)"><mask id="bqb" fill="#fff"><use xlink:href="#bqa"/></mask><use fill="#FFF" xlink:href="#bqa"/><g mask="url(#bqb)"><g transform="translate(0 -1)"><path fill="#39B7E2" d="M0 0h3v24H0z"/><path fill="#7BBD73" d="M3 0h3v24H3z"/><path fill="#F79C53" d="M6 0h3v24H6z"/><path fill="#F35994" d="M9 0h3v24H9z"/></g></g></g></g></svg><svg width="26" height="24" viewBox="0 0 26 24" id="standard-shipping" y="1026" xmlns="http://www.w3.org/2000/svg"><title>standard shipping</title><path d="M15.314 4.046h-2.2V1.579h2.2v2.467zm5.104 17.666h5.599V0H3.415c-.202 0-.4.1-.6.294-.299.295-.299.788.1 1.086l7.502 6.516-5.301 5.33L1.315 9.87c-.299-.294-.798-.294-1.1.1-.299.294-.299.787.1 1.086l2.201 1.873v8.784h7.002l.5 1.086c0 .1.399.787 1.1 1.086.101 0 .298.1.5.1.298 0 .6-.1 1-.295l.399-.199c.201.2.399.294.6.394.101.1.299.1.601.1.298 0 .702-.1 1.1-.295l.4-.199c.201.2.399.294.6.394.101 0 .298.1.5.1.298 0 .702-.1 1.1-.295l.601-.394c.101.1.298.2.5.295.1 0 .298.1.4.1.297 0 .6-.1.898-.295.298-.2.399-.593.202-.887-.202-.295-.601-.394-.9-.2-.1.1-.2.1-.2.1-.102 0-.203-.199-.203-.294l-1.6-3.461c-.201-.294-.5-.493-.899-.294-.298.099-.5.493-.298.887l1.399 3.059-.6.294c-.202.1-.3.199-.4.1-.1 0-.202-.2-.298-.295l-1.201-2.765c-.101-.294-.5-.493-.9-.393-.298.1-.5.493-.398.887l1 2.271-.4.294c-.201.1-.399.2-.5.1-.201-.1-.298-.199-.298-.294l-.705-1.779c-.101-.294-.5-.493-.9-.393-.297.1-.5.493-.398.887l.5 1.285-.4.199c-.201.1-.298.1-.399.1-.1 0-.1-.1-.201-.1l-1.201-2.666v-.1l-2.302-5.13-1.004.986 2.1 4.638H4.116v-5.824l.601.494c.1.099.298.198.5.198.201 0 .399-.099.5-.198l6.4-6.417c.3-.294.203-.788-.1-1.086L5.414 1.874h6.1V5.82h5.3V1.874h7.602v18.652h-3.301l-2.2-4.538 1.801.493c.1 0 1 .199 1.802-.294.298-.2.798-.693.899-1.58v-.1c.1-.294-.101-.592-.298-.691l-6.3-3.358h-.102-.1l-3.6-.593-1.1 1.186 4.401.692 5.8 3.06c-.1.198-.2.393-.297.492-.202.2-.601.1-.702.1l-2.902-.788-.298-.692c-.202-.294-.601-.493-.9-.294-.298.199-.5.592-.298.887l.799 1.579 2.2 4.539.698 1.086z" fill="#9CA73B" fill-rule="evenodd"/></svg><svg width="26" height="24" viewBox="0 0 26 24" id="standard-shipping-grey" y="1050" xmlns="http://www.w3.org/2000/svg"><title>standard shipping grey</title><path d="M15.314 4.046h-2.2V1.579h2.2v2.467zm5.104 17.666h5.599V0H3.415c-.202 0-.4.1-.6.294-.299.295-.299.788.1 1.086l7.502 6.516-5.301 5.33L1.315 9.87c-.299-.294-.798-.294-1.1.1-.299.294-.299.787.1 1.086l2.201 1.873v8.784h7.002l.5 1.086c0 .1.399.787 1.1 1.086.101 0 .298.1.5.1.298 0 .6-.1 1-.295l.399-.199c.201.2.399.294.6.394.101.1.299.1.601.1.298 0 .702-.1 1.1-.295l.4-.199c.201.2.399.294.6.394.101 0 .298.1.5.1.298 0 .702-.1 1.1-.295l.601-.394c.101.1.298.2.5.295.1 0 .298.1.4.1.297 0 .6-.1.898-.295.298-.2.399-.593.202-.887-.202-.295-.601-.394-.9-.2-.1.1-.2.1-.2.1-.102 0-.203-.199-.203-.294l-1.6-3.461c-.201-.294-.5-.493-.899-.294-.298.099-.5.493-.298.887l1.399 3.059-.6.294c-.202.1-.3.199-.4.1-.1 0-.202-.2-.298-.295l-1.201-2.765c-.101-.294-.5-.493-.9-.393-.298.1-.5.493-.398.887l1 2.271-.4.294c-.201.1-.399.2-.5.1-.201-.1-.298-.199-.298-.294l-.705-1.779c-.101-.294-.5-.493-.9-.393-.297.1-.5.493-.398.887l.5 1.285-.4.199c-.201.1-.298.1-.399.1-.1 0-.1-.1-.201-.1l-1.201-2.666v-.1l-2.302-5.13-1.004.986 2.1 4.638H4.116v-5.824l.601.494c.1.099.298.198.5.198.201 0 .399-.099.5-.198l6.4-6.417c.3-.294.203-.788-.1-1.086L5.414 1.874h6.1V5.82h5.3V1.874h7.602v18.652h-3.301l-2.2-4.538 1.801.493c.1 0 1 .199 1.802-.294.298-.2.798-.693.899-1.58v-.1c.1-.294-.101-.592-.298-.691l-6.3-3.358h-.102-.1l-3.6-.593-1.1 1.186 4.401.692 5.8 3.06c-.1.198-.2.393-.297.492-.202.2-.601.1-.702.1l-2.902-.788-.298-.692c-.202-.294-.601-.493-.9-.294-.298.199-.5.592-.298.887l.799 1.579 2.2 4.539.698 1.086z" fill="#9C999D" fill-rule="evenodd"/></svg><svg width="14" height="14" viewBox="0 0 14 14" id="tooltip" y="1074" xmlns="http://www.w3.org/2000/svg"><title>i normal</title><g fill="#486168" fill-rule="evenodd"><path d="M7 14c-3.9 0-7-3.1-7-7s3.1-7 7-7 7 3.1 7 7-3.1 7-7 7zM7 .9C3.6.9.9 3.6.9 7c0 3.4 2.8 6.1 6.1 6.1 3.4 0 6.1-2.8 6.1-6.1C13.1 3.6 10.4.9 7 .9z"/><path d="M7.7 9.9V5.6c-.4.1-.8.2-1.4.2h-.6V6c.2 0 .4.1.5.2.1.1.1.4.1.7V10c0 .2 0 .3-.1.4 0 .1-.1.2-.2.2s-.2.1-.4.1v.2h2.7v-.2c-.2 0-.3 0-.4-.1-.1 0-.2-.1-.2-.2v-.5m-.8-6.7c-.3 0-.5.1-.7.2-.1.1-.2.3-.2.5s.1.4.2.6c.2.1.4.2.7.2.3 0 .5-.1.7-.2.2-.1.2-.3.2-.6 0-.2-.1-.4-.2-.6-.2-.1-.4-.1-.7-.1"/></g></svg><svg width="14" height="14" viewBox="0 0 14 14" id="tooltip-blue" y="1088" xmlns="http://www.w3.org/2000/svg"><title>i select</title><g fill="none" fill-rule="evenodd"><path d="M6.703 13.66a6.667 6.667 0 1 0 0-13.334 6.667 6.667 0 0 0 0 13.334" fill="#45595C"/><path d="M7.423 9.941v-4.35c-.384.091-.87.136-1.46.136-.202 0-.408-.01-.62-.029v.21c.238 0 .404.07.498.207.094.139.142.363.142.672V9.94c0 .186-.02.331-.061.435a.38.38 0 0 1-.2.22.92.92 0 0 1-.379.063v.21c.716-.026 1.18-.039 1.392-.039.221 0 .664.013 1.328.04v-.21a.905.905 0 0 1-.376-.065.392.392 0 0 1-.2-.219 1.198 1.198 0 0 1-.064-.435M6.642 3.12c-.283 0-.506.069-.669.205a.693.693 0 0 0-.244.562c0 .24.081.429.244.566.163.137.386.205.669.205.277 0 .497-.068.661-.205.165-.137.247-.326.247-.566a.69.69 0 0 0-.247-.562c-.164-.136-.384-.205-.661-.205" fill="#FFF"/></g></svg><svg width="14" height="14" viewBox="0 0 14 14" id="tooltip-gray" y="1102" xmlns="http://www.w3.org/2000/svg"><title>i grey</title><g fill="#AAA" fill-rule="evenodd"><path d="M6.915 14a6.916 6.916 0 0 1 0-13.83 6.916 6.916 0 0 1 6.915 6.915C13.873 10.86 10.733 14 6.915 14zm0-13.024A6.065 6.065 0 0 0 .848 7.042a6.065 6.065 0 0 0 6.067 6.067 6.065 6.065 0 0 0 6.067-6.067C13.024 3.691 10.267.976 6.915.976z"/><path d="M7.636 9.927V5.685c-.381.085-.848.127-1.442.127-.212 0-.382 0-.594-.042v.212c.212 0 .382.085.467.212.085.127.127.34.127.636v3.097c0 .17 0 .34-.042.425-.043.084-.085.17-.213.212-.084.042-.212.042-.381.042v.212c.678-.042 1.145-.042 1.357-.042.212 0 .637 0 1.315.042v-.212c-.17 0-.297 0-.382-.042a.511.511 0 0 1-.212-.212v-.425m-.763-6.66c-.297 0-.51.085-.637.212-.17.127-.254.297-.254.551 0 .255.085.425.254.552.17.127.382.212.637.212.254 0 .466-.085.636-.212.17-.127.255-.297.255-.552a.684.684 0 0 0-.255-.551 1.042 1.042 0 0 0-.636-.212"/></g></svg><svg width="14" height="14" viewBox="0 0 14 14" id="tooltip-orange" y="1116" xmlns="http://www.w3.org/2000/svg"><title>i orange</title><g fill="#F27123" fill-rule="evenodd"><path d="M7 14.127c-3.86 0-7-3.14-7-7s3.14-7 7-7 7 3.14 7 7-3.14 7-7 7zM7 .976A6.156 6.156 0 0 0 .848 7.127 6.156 6.156 0 0 0 7 13.28a6.156 6.156 0 0 0 6.152-6.152A6.156 6.156 0 0 0 7 .976z"/><path d="M7.721 10.012V5.727c-.382.085-.848.128-1.442.128-.212 0-.382 0-.594-.043v.212c.254 0 .382.085.509.212.085.128.127.34.127.68v3.096c0 .17 0 .34-.042.424-.043.085-.085.17-.212.212-.085.043-.212.043-.382.043v.212c.721-.042 1.145-.042 1.357-.042.213 0 .637 0 1.316.042v-.212c-.17 0-.297 0-.382-.043a.511.511 0 0 1-.212-.212c-.043-.084-.043-.212-.043-.424M6.958 3.31c-.297 0-.51.085-.68.212a.684.684 0 0 0-.254.552c0 .254.085.424.255.551.17.128.382.212.679.212.254 0 .509-.084.636-.212a.684.684 0 0 0 .254-.551c0-.255-.084-.425-.254-.552-.17-.17-.382-.212-.636-.212"/></g></svg></svg>